<svg xmlns="http://www.w3.org/2000/svg" width="256" height="256" viewBox="0 0 256 256"><path d="M58.6 167.3a32.7 32.7 0 0 0-7.8.9c0 .3.3.6.8 1l2 1a16.9 16.9 0 0 0 2.7 1c.9.4 1.9.6 2.8.9l2.4.6 1.5.2h2.1l2.6-.4a11.7 11.7 0 0 0 2.4-.9 4.1 4.1 0 0 0 1.7-1.5 29.3 29.3 0 0 0-6.5-2.2 29.9 29.9 0 0 0-6.7-.6z"/><path d="M128 0a128 128 0 1 0 128 128A128 128 0 0 0 128 0zm83.5 70.6v.3a8.2 8.2 0 0 1-.1 1.4c-.2.7-.2 1.4-.4 2.2l-.3 2.1c-.1.6-.2 1.1-.2 1.3a11.4 11.4 0 0 0-1 1.9l-.6 1.9-.6 2.1a14.6 14.6 0 0 1-.7 1.9c-.6 1.1-1.1 2.2-1.7 3.1a22.5 22.5 0 0 0-1.6 3.1l-20.1 27.9-.2.5-.3.3-.3.3-.4.5-1.7 2.3c-.7.9-1.4 1.8-2.1 2.9l-2.2 3.2c-.7 1.1-1.4 2.2-2 3.3s-1 2.1-1.4 3a8 8 0 0 0-.5 2.3c0 .3-.2.6-.2.8s.2.4.2.7c-.2 0-.3.1-.3.4s.1.4.3.4v10.2a1.9 1.9 0 0 1-.3 1l-.3 1.2a6.7 6.7 0 0 0-.6 1.2 3.1 3.1 0 0 0-.5 1.2v1.6a.8.8 0 0 1 0 .5c-.2.2-.2.5-.4.7s-.6.6-.7.9l-.6.4v.4c0 .1.7.2.8.4s.9.3.9.4v2.9a21.4 21.4 0 0 1-.6 3.5c-.2 1.2-.6 2.4-.8 3.5s-.5 2.4-.7 3.6-.3 2.3-.3 3.5.1 4.3.3 6.4a44.8 44.8 0 0 0 1.1 6.2 27.8 27.8 0 0 0 2.1 5.7 23.2 23.2 0 0 0 3.5 5.3 4.1 4.1 0 0 1-1.3.8l-1.7.7-1.7.5h-1.9l-1.1-.3-1.2-.2-1-.3h-.7l-.8-.3-.6-.5a1.5 1.5 0 0 1-.3-.7 27.7 27.7 0 0 0 .1-4.1 32.2 32.2 0 0 0-.3-4.3c-.1-1.4-.3-2.8-.5-4.3s-.4-2.8-.5-4.1-.1-.3-.2-.6l-.3-.6c.1-1.1.1-2.4.2-3.7s-.1-2.7-.2-4.1a27.6 27.6 0 0 0-.6-4 11.6 11.6 0 0 0-1.4-3.4 4.5 4.5 0 0 0-1.5 1.8 19.1 19.1 0 0 0-.7 2.8c-.3.9-.2 1.9-.5 2.9a11.8 11.8 0 0 0-.9 2.3v7.6c0 2.9-.2 5.7-.1 8.4s.2 5.4.5 8.2l.5.4.8.6.8.7a.9.9 0 0 1 .3.6c0 .2-.2.5-.8.8l-1.8.9-2.1.8-1.3.4h-.2l-4.7-2.6a.5.5 0 0 1-.3-.5v-.6a14.5 14.5 0 0 1 .1-3 28.1 28.1 0 0 0 .1-3c0-1.3-.2-2.6-.3-3.8l-.6-3.8-.6-3.8a23.8 23.8 0 0 1-.3-3.9c0-1.2.1-2.3.1-3.3a23.6 23.6 0 0 1 .4-2.8c.2-1 .3-1.9.5-2.9s.4-2 .7-3.2a2 2 0 0 0-.1-.7 5.6 5.6 0 0 0-.1-.7 6.5 6.5 0 0 0-1.9.2l-1.8.5-2 .6-1.9.5-1.4.2-1 .2h-1l-1.1-.2h-7.1a46.1 46.1 0 0 0-5.3-.2h-2.5a3.5 3.5 0 0 0-2.3.9v5.2c-.1 1.7-.1 3.4-.2 5.1l-.3 5.2c0 1.7-.1 3.4-.1 5.2v5.1c0 .6.7 1.1 1.1 1.7l1.4 1.7a9.4 9.4 0 0 1 1.2 1.8 3.2 3.2 0 0 1 .6 1.8v.2a.3.3 0 0 0-.1.2 9.3 9.3 0 0 1-4.1.4c.1.5 0 .7-.2.8h-2.7l-2.3-.2a5.1 5.1 0 0 1-1.8-.9 2.3 2.3 0 0 1-.8-1.9c0-.4.1-.8.1-1.3a9.3 9.3 0 0 1 .4-1.3l.3-1.3a6.1 6.1 0 0 0 .1-1.4 23.4 23.4 0 0 0-.3-3.8c-.1-1.3-.4-2.5-.6-3.7l-.9-3.8a29.6 29.6 0 0 1-.7-4h-.4c-.2 0-.4.7-.5.9a2.5 2.5 0 0 0-.4.7l-.4.5-1.5 2.3c-.6.8-1 1.5-1.5 2.3a18.9 18.9 0 0 0-1.1 2.5 7.7 7.7 0 0 0-.4 2.7 4.5 4.5 0 0 0 .3 1.6 10.2 10.2 0 0 0 .8 1.5 6.3 6.3 0 0 0 .7 1.2 1.5 1.5 0 0 1 .3.6.8.8 0 0 1-.4.7l-1 .5-1.3.3h-2.7l-1.7-.2a1.8 1.8 0 0 1-1.1-.4 2.2 2.2 0 0 1-.7-.9 4.3 4.3 0 0 1-.5-1.6l-.6-1.6a8.8 8.8 0 0 1-.2-1.7 3.4 3.4 0 0 1 .4-1.5l.9-1.6 1.1-1.6a7 7 0 0 0 .8-1.4c.9-2 1.7-4 2.5-6s1.6-3.9 2.5-5.9c.1-.3.3-.5.4-.8l.6-.7a2.5 2.5 0 0 0 .4-.7 2.9 2.9 0 0 0 .2-.9.6.6 0 0 0-.3-.6h-1.3l-9.1 2.5a3.2 3.2 0 0 1-1.3.5l-1.8.4a4.4 4.4 0 0 0-1.6.6 1.2 1.2 0 0 0-.7 1 1.2 1.2 0 0 0 .3.9 2.3 2.3 0 0 0 .7.7l.8.6a1.3 1.3 0 0 1 .7.6l-.4.4-1.2-.8-1.5-.9-1.5-.6a3.9 3.9 0 0 0-1.5-.2 12.8 12.8 0 0 0-3.8.5l-4 1.1a31.7 31.7 0 0 1-4.1 1.2 20.2 20.2 0 0 1-4.3.5 18.5 18.5 0 0 1-3.5-.4 37 37 0 0 1-4.9-1.1l-5.5-1.7a32.9 32.9 0 0 1-5-2.3 15.4 15.4 0 0 1-3.7-2.7 3.9 3.9 0 0 1-1.4-3 4 4 0 0 1 1.1-3.2 5.7 5.7 0 0 1 2.8-1.7 13.4 13.4 0 0 1 3.5-.1 31.1 31.1 0 0 1 3.3.3h4c.2 0 .6-.4 1.3-.3a23.2 23.2 0 0 1 2.4.2l2.6.3 1.9.3 2 .5 1.8.9 1.8.7a4.9 4.9 0 0 0 2.1.4 9.3 9.3 0 0 0 4-1.1 25.7 25.7 0 0 0 4.1-2.6 40.8 40.8 0 0 0 3.9-3.1l3.3-2.8 1.9-1.2 1.9-1.1a10.9 10.9 0 0 0 1.7-1.3 5 5 0 0 0 1.5-1.7 33.5 33.5 0 0 0 2.7-4.5 20.7 20.7 0 0 1 2.7-4.5l1.3-1.3 1.5-1 1.7-.9 1.6-.9a24.2 24.2 0 0 0 3.6-2.7l3.5-2.9 3.4-3 3.5-2.9a17.9 17.9 0 0 1 3.8-2.2l3.9-1.9 2.5-1.3 2.5-1.3 2.6-1.2a13.4 13.4 0 0 1 2.7-.7l22.6-3.3a12.8 12.8 0 0 0 3.5-1.1 18.5 18.5 0 0 0 3.4-2.3 28 28 0 0 0 3.2-2.9c1-1 2-2.1 2.9-3.2a39.2 39.2 0 0 0 2.7-3.3l2.3-2.8 7.8-9 .3-.3.6-.6.5-.5.3-.3 2-3.2.3-.2.4-.2.3-.3.3-.2.4-.4.3-.4 1.3-1.7 1.4-2 1.3-2 1-1.7a11.9 11.9 0 0 0 .8-2 18.7 18.7 0 0 0 .7-2.2c.3-.7.5-1.4.8-2.2s1-1.5 1-2.2v-6.1a5.1 5.1 0 0 0-1.1-3.1 13.3 13.3 0 0 0-2.6-2.7A15.9 15.9 0 0 0 196 56a8.4 8.4 0 0 0-3.2-.7 22.7 22.7 0 0 0-5.9.7 11.3 11.3 0 0 0-5.2 2.7l-1.4 1.4c-.5.6-1.1 1.2-1.6 1.9l-1.8 2a10.7 10.7 0 0 1-1.9 1.8 11 11 0 0 1-1.8 1.4 4.1 4.1 0 0 1-1.8.5 1.6 1.6 0 0 1-1.1-.5 1.4 1.4 0 0 1-.6-1.1v-.5l.2-.5c0-.2.1-.5.1-.7s.1-.6.2-.8v-.5a4.7 4.7 0 0 0-.2-1.7l-.6-1.3-.6-1.2a2.8 2.8 0 0 1-.3-1.3l.9-.2a1.6 1.6 0 0 0 .4-.7l.5-.7a1 1 0 0 1 .8-.6c0-.1.2-.1.5-.1h2.3a1.1 1.1 0 0 0 1-.4l.7-.6a.1.1 0 0 1 .2 0h.2l.2.4c.1.2.2.3.2.4s.2-.3.4-.4l.7-.3 1.1-.7 1.3-.8 1.4-.8 1.1-.7.6-.4 2.1-1.2 1.8-.7 1.9-.2h6.5l1.5.5 1.5.3 1.6.3 1.5.5a14.9 14.9 0 0 1 4.6 3.1 17 17 0 0 1 3.3 4.2 21.8 21.8 0 0 1 1.7 5.1 25 25 0 0 1 .5 5.5v2.3z"/></svg>