<svg xmlns="http://www.w3.org/2000/svg" width="256" height="256" viewBox="0 0 256 256"><path d="M132.6 151.3c-.3 0-.5.2-.5.6-.4 0-.5.2-.5.5s.1.6.5.6.4-.2.4-.6h.1a.5.5 0 0 0 .5-.5c0-.4-.2-.6-.5-.6zm1.4-.8a3 3 0 0 0-.8.8h.3l1.1-.3a2 2 0 0 0 .8-.8h-.3zm3.1-2.6c-.3 0-.4.2-.4.6h-.1c-.3 0-.5.1-.5.5h-.1c-.3 0-.5.2-.5.6s.2.6.5.6.5-.2.5-.6h.1c.3 0 .4-.2.4-.6h.1c.4 0 .5-.2.5-.5s-.1-.6-.5-.6zm23.4-5.9l-1.3 1.4a1.7 1.7 0 0 0 .8 1 2.2 2.2 0 0 0 1.2.2 1.9 1.9 0 0 0 1.4-.5 4.3 4.3 0 0 0 1.1-1.2 6.9 6.9 0 0 0 .7-1.5c.2-.5.4-1.2.5-1.2h-3.4c-.2 0-.5 1.1-1 1.8z"/><path d="M128 0a128 128 0 1 0 128 128A128 128 0 0 0 128 0zm96 75.9a4.2 4.2 0 0 1-1.6.4h-3.7l-5.3 1.2a20.4 20.4 0 0 0-3.6 1.6 10.9 10.9 0 0 0-2.5 2.2 12.6 12.6 0 0 0-1.8 3 40.4 40.4 0 0 0-1.5 3.9c-.5 1.5-1.1 3.2-1.7 5.1l-1.2 3.7-1.2 3.2-1.5 3.1a26.8 26.8 0 0 1-1.8 3.3 29 29 0 0 1-2.7 4.1l-2.9 3.7-3.2 3.6c-1 1.2-2.1 2.4-3.1 3.8a11.6 11.6 0 0 0-1.4 2.7l-.9 2.6a10.2 10.2 0 0 1-1.4 2.2 5.2 5.2 0 0 1-2.5 1.6l-1.4.6-2 .6-2 .7-1.4.4a3 3 0 0 1 .2 2 2 2 0 0 1-.9.9l-1.2.6a1.5 1.5 0 0 0-.9 1l-2.3 6.8a2.7 2.7 0 0 1-1.1 1.5 5.6 5.6 0 0 1-1.7.9 14.9 14.9 0 0 1-2.1.2l-1.8-.2h-.9c-.5 0-.9.2-1.1.1s-.4-.4-.4-.9a.8.8 0 0 1 .1-.4l.2-.2c.1-.1.2-.2.2-.3a.6.6 0 0 0 .1-.4v-.2a15.4 15.4 0 0 0-3.4 1.7 37.9 37.9 0 0 0-3.4 2l-3.4 2.2a37.9 37.9 0 0 1-3.4 2l-.8.5-1.2.5-1 .8a1.6 1.6 0 0 0-.5 1.1v.5l1.8 1.7 2 1.7a15.6 15.6 0 0 0 2 1.6 12 12 0 0 0 2.1 1.3l1.8.7 2 .5 1.9.7a5.6 5.6 0 0 1 1.7.9 5.7 5.7 0 0 1 1.3 1.4l1.2 1.5 1.1 1.5a6.4 6.4 0 0 0 1.5 1.3l1.7.6 2.1.6 1.8 1a2.3 2.3 0 0 1 .7 1.8v.5l-5.6 1.1-1.2.4a1.8 1.8 0 0 1-1.1.3h-.6l-1.1-.6-1.8-1-1.7-1c-.5-.4-.9-.6-1-.8l-.2-.2-.3-.5-.4-.6a.8.8 0 0 1-.2-.4l-2.3-4.6-1.2-.4-1.8-.8-2.1-.9-2.2-1-1.8-.8-1.1-.6a13.3 13.3 0 0 1-2.8-1.6 13.9 13.9 0 0 1-2.7-2.1l-2-2.7a7.5 7.5 0 0 1-1-3.2l-.6.2-.6.4-.9.6a8.3 8.3 0 0 1-1.7 1.2l-2.1 1.4-2.2 1.4-1.7 1.1-1 .5-6 3.6a20.3 20.3 0 0 0-4.6 3.4 15.9 15.9 0 0 0-3.6 4.5c-.9 1.7-.8 3.9-2.4 6.6v.7c-.1.1 0 .3 0 .5v.4a10.6 10.6 0 0 0 1.1 4.5 8.5 8.5 0 0 0 4.8 4l2.6 1a4.7 4.7 0 0 1 2 1 5.3 5.3 0 0 1 .8 2H102l-.2-.4c-.1-.2-.2-.1-.4-.2h-.5l-.6-.4a3.2 3.2 0 0 1-1.3-1.5 7.8 7.8 0 0 1-.4-2.2 8.6 8.6 0 0 1 .2-2.3c0-.8.3-1.5.3-2.1v-1.5a7.7 7.7 0 0 1 .2-1.8l.6-2.7c.3-1 .5-2 .8-3.1s.5-2.2.8-3.2.5-1.9.7-2.7.3-1.4.4-1.8a11.8 11.8 0 0 1 .7-2 7 7 0 0 1 1-1.9 16.1 16.1 0 0 0 4.5-2.6 25.7 25.7 0 0 0 3.3-3.3l2.9-3.5a17 17 0 0 1 3.4-3.1l1.5-.7 2.1-.8 2.3-1a15.1 15.1 0 0 0 2.2-1.1l1.6-1.3a2.5 2.5 0 0 0 .6-1.6v-1.3a2.4 2.4 0 0 0-.7-1.3l-.7-.2-1.2-.6-1.2-.5-.8-.4-2.1-1.2-2.6-1.9c-.9-.7-1.8-1-2.6-1.6a3 3 0 0 0-1.7-.5h-8c-6 0-11.9-.1-17.8.1s-11.7.2-17.8.2c-4.4 0-8.7-.2-12.9-.4a101.2 101.2 0 0 1-24.6-4.6 76.1 76.1 0 0 1-11.9-5.1l-1.4-.7a9.1 9.1 0 0 1-1.6-1.1 4 4 0 0 1-1.3-1.3 2.2 2.2 0 0 1-.6-1.5 6.9 6.9 0 0 1 2.2.4 11.7 11.7 0 0 1 2.4.9l2.2 1 1.5.6c1.5.6 3 1.2 4.7 1.7l5.1 1.4a31.8 31.8 0 0 0 5.2 1 27.4 27.4 0 0 0 4.8.4h26.8l2.5-.4 3.4-.5 3.7-.6 3.4-.6 2.7-.6 7-1.4c2.4-.4 4.9-1 7.4-1.6s4.9-1.3 7.3-2.1a58.6 58.6 0 0 0 6.7-2.8l3.8-1.8a26.6 26.6 0 0 1 3.9-1.6l3.9-1.4a29.8 29.8 0 0 1 4.3-.9h2.8l1.8-.2 1-.2 1.9-.3 3.4-.7 4.1-.9 4-1c1.3-.2 2.4-.9 3.4-1.1s1.6-.7 1.9-.7h6.6c2.7 0 5.4.5 8 .7s5.2.5 7.9.5a10.1 10.1 0 0 0 5.1-1.2 18.7 18.7 0 0 0 4.5-3.6 33.3 33.3 0 0 0 3.9-5 53 53 0 0 0 3.3-5.7c1-1.9 1.8-3.8 2.6-5.6l1.8-4.8c.4-1.2.8-2.4 1.1-3.5s.7-2.2 1-3.2a12.3 12.3 0 0 1 1.2-2.6 7 7 0 0 1 1.8-2 7.6 7.6 0 0 1 2.6-1.6 14.1 14.1 0 0 1 3.9-.8h3c.8 1.7 1.8.9 3 1.3a30 30 0 0 1 3.6 1.5 14.1 14.1 0 0 1 3 1.9 2.6 2.6 0 0 1 1.3 2.2 2 2 0 0 1-.5 1.4z"/></svg>